<mxfile host="65bd71144e">
    <diagram id="IeqN9PdBWZHurF_H_65i" name="Page-1">
        <mxGraphModel dx="2224" dy="334" grid="1" gridSize="10" guides="1" tooltips="1" connect="1" arrows="1" fold="1" page="1" pageScale="1" pageWidth="827" pageHeight="1169" math="0" shadow="0">
            <root>
                <mxCell id="0"/>
                <mxCell id="1" parent="0"/>
                <mxCell id="6" value="" style="image;html=1;image=img/lib/clip_art/computers/Laptop_128x128.png" parent="1" vertex="1">
                    <mxGeometry x="-740" y="204.71999999999997" width="70" height="70" as="geometry"/>
                </mxCell>
                <mxCell id="10" value="Cliente&lt;br&gt;" style="text;html=1;strokeColor=none;fillColor=none;align=center;verticalAlign=middle;whiteSpace=wrap;rounded=0;fontFamily=Helvetica;fontSize=12;" parent="1" vertex="1">
                    <mxGeometry x="-735" y="269.32" width="60" height="30" as="geometry"/>
                </mxCell>
                <mxCell id="12" value="" style="sketch=0;aspect=fixed;html=1;points=[];align=center;image;fontSize=12;image=img/lib/mscae/Cache_Redis_Product.svg;fontFamily=Helvetica;" parent="1" vertex="1">
                    <mxGeometry x="-245" y="14.400000000000011" width="50" height="42" as="geometry"/>
                </mxCell>
                <mxCell id="13" value="" style="dashed=0;outlineConnect=0;html=1;align=center;labelPosition=center;verticalLabelPosition=bottom;verticalAlign=top;shape=mxgraph.weblogos.mongodb;fontFamily=Helvetica;fontSize=12;" parent="1" vertex="1">
                    <mxGeometry x="-237" y="92.99999999999999" width="34" height="76.2" as="geometry"/>
                </mxCell>
                <mxCell id="24" value="MongoDB" style="text;html=1;strokeColor=none;fillColor=none;align=center;verticalAlign=middle;whiteSpace=wrap;rounded=0;fontFamily=Helvetica;fontSize=12;" parent="1" vertex="1">
                    <mxGeometry x="-250" y="169.20000000000002" width="60" height="30" as="geometry"/>
                </mxCell>
                <mxCell id="25" value="Azure Blob Storage" style="text;html=1;strokeColor=none;fillColor=none;align=center;verticalAlign=middle;whiteSpace=wrap;rounded=0;fontFamily=Helvetica;fontSize=12;" parent="1" vertex="1">
                    <mxGeometry x="-255" y="260" width="70" height="30" as="geometry"/>
                </mxCell>
                <mxCell id="26" value="Redis" style="text;html=1;strokeColor=none;fillColor=none;align=center;verticalAlign=middle;whiteSpace=wrap;rounded=0;fontFamily=Helvetica;fontSize=12;" parent="1" vertex="1">
                    <mxGeometry x="-250" y="56.40000000000002" width="60" height="30" as="geometry"/>
                </mxCell>
                <mxCell id="32" value="Middleware" style="text;html=1;strokeColor=none;fillColor=none;align=center;verticalAlign=middle;whiteSpace=wrap;rounded=0;fontFamily=Helvetica;fontSize=12;" parent="1" vertex="1">
                    <mxGeometry x="-497.16999999999996" y="71.1" width="60" height="30" as="geometry"/>
                </mxCell>
                <mxCell id="64" value="" style="shape=image;verticalLabelPosition=bottom;verticalAlign=top;imageAspect=0;aspect=fixed;image=data:image/svg+xml,PHN2ZyB4bWxucz0iaHR0cDovL3d3dy53My5vcmcvMjAwMC9zdmciIHhtbG5zOnhsaW5rPSJodHRwOi8vd3d3LnczLm9yZy8xOTk5L3hsaW5rIiB3aWR0aD0iMjU2IiBoZWlnaHQ9IjI1NS45OTg5OTI5MTk5MjE4OCIgdmlld0JveD0iMCAwIDI1NiAyNTUuOTk4OTkyOTE5OTIxODgiIHZlcnNpb249IjEuMSIgcHJlc2VydmVBc3BlY3RSYXRpbz0ieE1pZFlNaWQiPgogICAgPGc+CiAgICAgICAgPHBhdGggZD0iTTE2MC4yMjcsMTc4LjUxODYgTDE4Ny44NTcsMTc4LjUxODYgTDE0My43NSw2NC4wNDg2IEwxMTMuMjAxLDY0LjA0ODYgTDY5LjA5NCwxNzguNTE4NiBMOTYuNzI2LDE3OC41MTg2IEwxMDMuOTM0LDE1OS4xMjg2IEwxNDUuNjA5LDE1OS4xMjg2IEwxMzguMDY1LDEzNy42NzI2IEwxMTAuNjI1LDEzNy42NzI2IEwxMjguNDc1LDg4LjQxODYgTDE2MC4yMjcsMTc4LjUxODYgWiBNMjUxLjMzOSw5My43NjggQzI1MC4zNTcsOTAuMjMyIDI0Ni43MDUsODguMTU1IDI0My4xNTQsODkuMTQxIEMyMzkuNjE3LDkwLjEyMyAyMzcuNTQ0LDkzLjc4NyAyMzguNTI2LDk3LjMyNCBDMjQxLjI5OSwxMDcuMzA5IDI0Mi43MDQsMTE3LjYzIDI0Mi43MDQsMTI4IEMyNDIuNzA0LDE5MS4yNDggMTkxLjI0OCwyNDIuNzAyIDEyOCwyNDIuNzAyIEM2NC43NTIsMjQyLjcwMiAxMy4yOTcsMTkxLjI0OCAxMy4yOTcsMTI4IEMxMy4yOTcsNjQuNzUxIDY0Ljc1MiwxMy4yOTYgMTI4LDEzLjI5NiBDMTU0Ljc5MywxMy4yOTYgMTgwLjcxOCwyMi44MTQgMjAxLjE3OSwzOS43NTIgQzIwMC4zODMsNDEuNjUyIDE5OS45NDEsNDMuNzM3IDE5OS45NDEsNDUuOTI1IEMxOTkuOTQxLDU0Ljc2IDIwNy4xMDMsNjEuOTIyIDIxNS45MzgsNjEuOTIyIEMyMjQuNzczLDYxLjkyMiAyMzEuOTM1LDU0Ljc2IDIzMS45MzUsNDUuOTI1IEMyMzEuOTM1LDM3LjA5IDIyNC43NzMsMjkuOTI4IDIxNS45MzgsMjkuOTI4IEMyMTQuMjM3LDI5LjkyOCAyMTIuNiwzMC4xOTkgMjExLjA2MiwzMC42OTEgQzE4OC4wMjIsMTEuMDU2IDE1OC41MTMsMCAxMjgsMCBDNTcuNDIxLDAgMCw1Ny40MiAwLDEyOCBDMCwxOTguNTc5IDU3LjQyMSwyNTUuOTk5IDEyOCwyNTUuOTk5IEMxOTguNTc5LDI1NS45OTkgMjU2LDE5OC41NzkgMjU2LDEyOCBDMjU2LDExNi40MjggMjU0LjQzMywxMDQuOTEgMjUxLjMzOSw5My43NjggWiIgZmlsbD0iIzExMkI0OSIvPgogICAgPC9nPgo8L3N2Zz4=" parent="1" vertex="1">
                    <mxGeometry x="-496.78" y="11.900000000000006" width="59.2" height="59.2" as="geometry"/>
                </mxCell>
                <mxCell id="68" value="FQDN" style="endArrow=classic;html=1;exitX=1;exitY=0.5;exitDx=0;exitDy=0;" parent="1" source="6" edge="1">
                    <mxGeometry x="0.0001" y="-1" width="50" height="50" relative="1" as="geometry">
                        <mxPoint x="-652.78" y="344.91999999999996" as="sourcePoint"/>
                        <mxPoint x="-510" y="241.32" as="targetPoint"/>
                        <mxPoint as="offset"/>
                    </mxGeometry>
                </mxCell>
                <mxCell id="69" value="" style="endArrow=classic;html=1;" parent="1" edge="1">
                    <mxGeometry width="50" height="50" relative="1" as="geometry">
                        <mxPoint x="-430" y="41" as="sourcePoint"/>
                        <mxPoint x="-237" y="131.68" as="targetPoint"/>
                    </mxGeometry>
                </mxCell>
                <mxCell id="70" value="" style="endArrow=classic;html=1;" parent="1" edge="1">
                    <mxGeometry width="50" height="50" relative="1" as="geometry">
                        <mxPoint x="-430" y="41" as="sourcePoint"/>
                        <mxPoint x="-245" y="41" as="targetPoint"/>
                    </mxGeometry>
                </mxCell>
                <mxCell id="74" value="" style="shape=image;verticalLabelPosition=bottom;labelBackgroundColor=#ffffff;verticalAlign=top;aspect=fixed;imageAspect=0;image=data:image/svg+xml,PHN2ZyB4bWxucz0iaHR0cDovL3d3dy53My5vcmcvMjAwMC9zdmciIHZpZXdCb3g9Ii0xMS41IC0xMC4yMzE3NCAyMyAyMC40NjM0OCI+CiAgPHRpdGxlPlJlYWN0IExvZ288L3RpdGxlPgogIDxjaXJjbGUgY3g9IjAiIGN5PSIwIiByPSIyLjA1IiBmaWxsPSIjNjFkYWZiIi8+CiAgPGcgc3Ryb2tlPSIjNjFkYWZiIiBzdHJva2Utd2lkdGg9IjEiIGZpbGw9Im5vbmUiPgogICAgPGVsbGlwc2Ugcng9IjExIiByeT0iNC4yIi8+CiAgICA8ZWxsaXBzZSByeD0iMTEiIHJ5PSI0LjIiIHRyYW5zZm9ybT0icm90YXRlKDYwKSIvPgogICAgPGVsbGlwc2Ugcng9IjExIiByeT0iNC4yIiB0cmFuc2Zvcm09InJvdGF0ZSgxMjApIi8+CiAgPC9nPgo8L3N2Zz4=;" parent="1" vertex="1">
                    <mxGeometry x="-494.66999999999996" y="214.71999999999997" width="57.5" height="50" as="geometry"/>
                </mxCell>
                <mxCell id="75" value="" style="aspect=fixed;html=1;points=[];align=center;image;fontSize=12;image=img/lib/azure2/general/Image.svg;" parent="1" vertex="1">
                    <mxGeometry x="-155" y="208" width="64" height="44" as="geometry"/>
                </mxCell>
                <mxCell id="76" value="" style="shape=curlyBracket;whiteSpace=wrap;html=1;rounded=1;size=0.5;" parent="1" vertex="1">
                    <mxGeometry x="-190" y="101.10000000000001" width="30" height="59.16" as="geometry"/>
                </mxCell>
                <mxCell id="77" value="Front-end" style="text;html=1;strokeColor=none;fillColor=none;align=center;verticalAlign=middle;whiteSpace=wrap;rounded=0;fontFamily=Helvetica;fontSize=12;" parent="1" vertex="1">
                    <mxGeometry x="-495.9199999999999" y="269.31999999999994" width="60" height="30" as="geometry"/>
                </mxCell>
                <mxCell id="78" value="Imagenes" style="text;html=1;strokeColor=none;fillColor=none;align=center;verticalAlign=middle;whiteSpace=wrap;rounded=0;fontFamily=Helvetica;fontSize=12;" parent="1" vertex="1">
                    <mxGeometry x="-153" y="255.4" width="60" height="30" as="geometry"/>
                </mxCell>
                <mxCell id="87" value="Usuarios" style="text;html=1;strokeColor=none;fillColor=none;align=center;verticalAlign=middle;whiteSpace=wrap;rounded=0;fontFamily=Helvetica;fontSize=12;" parent="1" vertex="1">
                    <mxGeometry x="-170" y="101.1" width="60" height="30" as="geometry"/>
                </mxCell>
                <mxCell id="88" value="Comentarios&lt;br&gt;" style="text;html=1;strokeColor=none;fillColor=none;align=center;verticalAlign=middle;whiteSpace=wrap;rounded=0;fontFamily=Helvetica;fontSize=12;" parent="1" vertex="1">
                    <mxGeometry x="-160" y="131.09999999999997" width="60" height="30" as="geometry"/>
                </mxCell>
                <mxCell id="89" value="" style="sketch=0;aspect=fixed;html=1;points=[];align=center;image;fontSize=12;image=img/lib/mscae/BlobBlock.svg;" parent="1" vertex="1">
                    <mxGeometry x="-245" y="210" width="50" height="42" as="geometry"/>
                </mxCell>
                <mxCell id="90" value="" style="endArrow=classic;html=1;" parent="1" edge="1">
                    <mxGeometry width="50" height="50" relative="1" as="geometry">
                        <mxPoint x="-430" y="41" as="sourcePoint"/>
                        <mxPoint x="-247" y="230" as="targetPoint"/>
                    </mxGeometry>
                </mxCell>
                <mxCell id="91" value="Peticiones&lt;br&gt;REST" style="endArrow=classic;html=1;" parent="1" edge="1">
                    <mxGeometry width="50" height="50" relative="1" as="geometry">
                        <mxPoint x="-425" y="240" as="sourcePoint"/>
                        <mxPoint x="-245" y="240" as="targetPoint"/>
                    </mxGeometry>
                </mxCell>
                <mxCell id="92" value="Peticiones&lt;br&gt;GraphQL" style="endArrow=classic;html=1;" parent="1" edge="1">
                    <mxGeometry width="50" height="50" relative="1" as="geometry">
                        <mxPoint x="-466.41" y="208.51999999999998" as="sourcePoint"/>
                        <mxPoint x="-466" y="90" as="targetPoint"/>
                    </mxGeometry>
                </mxCell>
                <mxCell id="93" value="" style="shape=curlyBracket;whiteSpace=wrap;html=1;rounded=1;size=0.5;" parent="1" vertex="1">
                    <mxGeometry x="-185" y="196.82" width="30" height="88.58" as="geometry"/>
                </mxCell>
            </root>
        </mxGraphModel>
    </diagram>
</mxfile>